<svg width="14" height="14" viewBox="0 0 14 14" fill="none" xmlns="http://www.w3.org/2000/svg">
<path d="M9.62501 9.625C10.1083 9.625 10.5 10.0167 10.5 10.5C10.5 10.8222 10.7612 11.0833 11.0833 11.0833H11.375C11.674 11.0833 11.7385 11.0803 11.7806 11.0719C12.0119 11.0259 12.1925 10.8452 12.2386 10.6139L12.2477 10.5074C12.2495 10.4487 12.25 10.3578 12.25 10.2083V8.63322C12.25 8.13366 12.2498 7.79402 12.2284 7.53149C12.2127 7.33981 12.1872 7.21827 12.156 7.13102L12.123 7.05355C12.0251 6.86149 11.8762 6.70079 11.6934 6.5887L11.6131 6.5437C11.5219 6.49721 11.3909 6.45921 11.1352 6.43831C10.8727 6.41687 10.533 6.41667 10.0335 6.41667H3.96656C3.467 6.41667 3.12736 6.41687 2.86484 6.43831C2.60909 6.45921 2.47812 6.49721 2.38689 6.5437C2.16741 6.65555 1.98889 6.83407 1.87704 7.05355C1.83056 7.14478 1.79255 7.27575 1.77166 7.53149C1.75021 7.79402 1.75001 8.13366 1.75001 8.63322V10.2083C1.75001 10.5073 1.75302 10.5718 1.7614 10.6139C1.80747 10.8452 1.98814 11.0259 2.21941 11.0719L2.32594 11.0811C2.38466 11.0828 2.4755 11.0833 2.62501 11.0833H2.91668C3.23884 11.0833 3.50001 10.8222 3.50001 10.5C3.50001 10.0167 3.89176 9.625 4.37501 9.625H9.62501ZM4.66668 7C4.98884 7 5.25001 7.26117 5.25001 7.58333C5.25001 7.9055 4.98884 8.16667 4.66668 8.16667H2.91668C2.59451 8.16667 2.33334 7.9055 2.33334 7.58333C2.33334 7.26117 2.59451 7 2.91668 7H4.66668ZM11.0833 7C11.4055 7 11.6667 7.26117 11.6667 7.58333C11.6667 7.9055 11.4055 8.16667 11.0833 8.16667H9.33334C9.01118 8.16667 8.75001 7.9055 8.75001 7.58333C8.75001 7.26117 9.01118 7 9.33334 7H11.0833ZM4.84555 2.91667C4.31197 2.91667 4.20519 2.92644 4.12721 2.95711C4.05916 2.98389 3.99702 3.02326 3.94378 3.07275L3.89365 3.12573C3.83989 3.19001 3.79684 3.28799 3.62818 3.79394L3.13998 5.2574C3.38204 5.25049 3.65659 5.25 3.96656 5.25H10.0335C10.3432 5.25 10.6176 5.25051 10.8595 5.2574L10.3718 3.79394C10.2453 3.4143 10.1895 3.26445 10.1468 3.18612L10.1064 3.12573C10.0594 3.06963 10.0027 3.02274 9.93889 2.98787L9.87281 2.95711C9.79482 2.92644 9.68805 2.91667 9.15447 2.91667H4.84555ZM13.4167 10.2083C13.4167 10.3907 13.4182 10.5525 13.4036 10.6994L13.3831 10.8412C13.245 11.5354 12.7021 12.0783 12.0079 12.2164C11.8247 12.2528 11.618 12.25 11.375 12.25H11.0833C10.2162 12.25 9.49671 11.6193 9.35784 10.7917H4.64218C4.5033 11.6193 3.78378 12.25 2.91668 12.25H2.62501C2.44268 12.25 2.28082 12.2515 2.13396 12.2369L1.99212 12.2164C1.34139 12.087 0.823727 11.602 0.647714 10.97L0.616953 10.8412C0.580539 10.658 0.583343 10.4513 0.583343 10.2083V8.63322C0.583343 8.15285 0.582746 7.75742 0.608977 7.43636C0.635769 7.10849 0.693168 6.80686 0.837412 6.52376L0.927418 6.36312C1.02046 6.21144 1.13093 6.07202 1.25497 5.94613L0.905771 5.77181C0.617617 5.62773 0.500789 5.27725 0.644866 4.98909C0.788943 4.70094 1.13943 4.58411 1.42758 4.72819L1.99269 5.01074L2.52133 3.42537C2.65858 3.01361 2.76869 2.65225 2.99871 2.3772L3.07162 2.29573C3.24746 2.11041 3.46197 1.96516 3.70053 1.87134L3.82756 1.82861C4.12927 1.74256 4.46575 1.75 4.84555 1.75H9.15447C9.58844 1.75 9.96585 1.74017 10.2995 1.87134L10.4003 1.91463C10.6317 2.0228 10.8369 2.18063 11.0013 2.3772L11.0828 2.48429C11.2598 2.74329 11.3586 3.06509 11.4787 3.42537L12.0068 5.01074L12.5724 4.72819C12.8606 4.58411 13.2111 4.70094 13.3552 4.98909C13.4992 5.27725 13.3824 5.62773 13.0942 5.77181L12.7445 5.94613C12.9113 6.11541 13.0534 6.30937 13.1626 6.52376L13.2127 6.63086C13.3208 6.8827 13.3676 7.14945 13.391 7.43636C13.4173 7.75742 13.4167 8.15285 13.4167 8.63322V10.2083Z" fill="#57534E"/>
</svg>
