<svg width="13" height="13" viewBox="0 0 13 13" fill="none" xmlns="http://www.w3.org/2000/svg">
<path d="M11.6667 6.41667C11.6667 3.51717 9.31616 1.16667 6.41667 1.16667C3.51717 1.16667 1.16667 3.51717 1.16667 6.41667C1.16667 9.31616 3.51717 11.6667 6.41667 11.6667C9.31616 11.6667 11.6667 9.31616 11.6667 6.41667ZM5.83333 2.91667C5.83333 2.5945 6.0945 2.33333 6.41667 2.33333C6.73883 2.33333 7 2.5945 7 2.91667V6.05607L9.0109 7.06152C9.29906 7.2056 9.41589 7.55608 9.27181 7.84424C9.12773 8.13239 8.77725 8.24922 8.48909 8.10514L6.15576 6.93848C5.95814 6.83966 5.83333 6.63762 5.83333 6.41667V2.91667ZM12.8333 6.41667C12.8333 9.96049 9.96049 12.8333 6.41667 12.8333C2.87284 12.8333 0 9.96049 0 6.41667C0 2.87284 2.87284 0 6.41667 0C9.96049 0 12.8333 2.87284 12.8333 6.41667Z" fill="#57534E"/>
</svg>
