<svg width="16" height="16" viewBox="0 0 16 16" fill="none" xmlns="http://www.w3.org/2000/svg">
<g clip-path="url(#clip0_1_17428)">
<path d="M15.0791 13.1582C14.9839 13.9285 14.9417 14.2628 14.5859 15.0137L9.12403 16.1416C9.24959 15.3301 9.41742 14.7036 9.68946 14.3281L15.0791 13.1582ZM7.47169 7.84668L9.10352 7.49219V2.33594C9.71161 1.65334 10.0854 1.34642 10.8193 0.958984V7.12012L15.0791 6.19531C14.9839 6.9656 14.9417 7.29991 14.5859 8.05078L10.8193 8.84668V10.5781L15.0791 9.67773C14.9839 10.4477 14.9416 10.7815 14.5859 11.5322L10.8193 12.3096V12.3262L9.10352 12.6807V9.20898L7.47169 9.55371V11.7422L7.44239 11.748C7.06704 12.4061 6.53792 13.1971 6.02735 13.8281L0.667 14.8486C0.715066 14.1589 0.815053 13.77 1.12696 13.0752L5.75587 12.0713V9.91602L1.46583 10.8242C1.5139 10.1347 1.614 9.7463 1.92579 9.05176L5.75587 8.21875V1.37598C6.36387 0.693505 6.73772 0.386449 7.47169 -0.000976562V7.84668Z" fill="#292524"/>
</g>
<defs>
<clipPath id="clip0_1_17428">
<rect width="16" height="16" fill="white"/>
</clipPath>
</defs>
</svg>
