<svg width="10" height="10" viewBox="0 0 10 10" fill="none" xmlns="http://www.w3.org/2000/svg">
<g clip-path="url(#clip0_200_285)">
<path d="M9.33507 5.12953C9.29484 5.0472 9.29484 4.95279 9.33507 4.87049L9.70804 4.1075C9.91569 3.68268 9.75116 3.17634 9.33347 2.95472L8.58328 2.55667C8.50234 2.51374 8.44685 2.43734 8.43101 2.34712L8.28429 1.51062C8.2026 1.04488 7.77178 0.731916 7.30368 0.798146L6.4628 0.917091C6.37204 0.929903 6.28229 0.900724 6.21646 0.837032L5.60609 0.246567C5.26623 -0.08222 4.73381 -0.0822395 4.39397 0.246567L3.78358 0.837091C3.71772 0.900802 3.62797 0.929923 3.53723 0.917149L2.69636 0.798205C2.2281 0.731936 1.79744 1.04494 1.71574 1.51068L1.56902 2.34714C1.55318 2.43737 1.49769 2.51376 1.41678 2.55671L0.666587 2.95475C0.248894 3.17635 0.0843636 3.68274 0.292019 4.10756L0.664966 4.87052C0.7052 4.95285 0.7052 5.04726 0.664966 5.12957L0.291999 5.89253C0.0843441 6.31735 0.248874 6.8237 0.666567 7.04532L1.41676 7.44336C1.49769 7.48629 1.55318 7.5627 1.56902 7.65291L1.71574 8.48941C1.79012 8.91339 2.15367 9.21073 2.5715 9.21069C2.61265 9.21069 2.65441 9.2078 2.69638 9.20187L3.53725 9.08292C3.62794 9.07005 3.71774 9.09929 3.7836 9.16298L4.39397 9.75345C4.56393 9.91786 4.78193 10 5.00002 10C5.21804 10 5.43619 9.91782 5.60607 9.75345L6.21646 9.16298C6.28231 9.09929 6.37208 9.07019 6.4628 9.08292L7.30368 9.20187C7.77199 9.26812 8.2026 8.95513 8.28429 8.48939L8.43103 7.65293C8.44687 7.5627 8.50236 7.48631 8.58328 7.44336L9.33347 7.04532C9.75116 6.82372 9.91569 6.31733 9.70804 5.89251L9.33507 5.12953ZM3.84649 2.4046C4.42953 2.4046 4.90389 2.87895 4.90389 3.462C4.90389 4.04504 4.42953 4.51939 3.84649 4.51939C3.26345 4.51939 2.78909 4.04504 2.78909 3.462C2.78909 2.87895 3.26345 2.4046 3.84649 2.4046ZM3.30071 7.10711C3.2444 7.16342 3.1706 7.19159 3.09681 7.19159C3.02302 7.19159 2.94919 7.16344 2.8929 7.10711C2.78029 6.9945 2.78029 6.8119 2.8929 6.69928L6.6993 2.89288C6.8119 2.78026 6.99452 2.78026 7.10713 2.89288C7.21975 3.0055 7.21975 3.18809 7.10713 3.30071L3.30071 7.10711ZM6.15351 7.59543C5.57046 7.59543 5.09611 7.12108 5.09611 6.53803C5.09611 5.95499 5.57046 5.48064 6.15351 5.48064C6.73655 5.48064 7.2109 5.95499 7.2109 6.53803C7.2109 7.12108 6.73655 7.59543 6.15351 7.59543Z" fill="#D92D20"/>
<path d="M6.15349 6.0574C5.88848 6.0574 5.67285 6.27301 5.67285 6.53803C5.67285 6.80304 5.88846 7.01865 6.15349 7.01865C6.41851 7.01865 6.63412 6.80304 6.63412 6.53803C6.63412 6.27301 6.41851 6.0574 6.15349 6.0574Z" fill="#D92D20"/>
<path d="M3.84647 2.98135C3.58145 2.98135 3.36584 3.19696 3.36584 3.46198C3.36584 3.72699 3.58145 3.94262 3.84647 3.94262C4.11148 3.94262 4.32711 3.72701 4.32711 3.46198C4.32709 3.19698 4.11148 2.98135 3.84647 2.98135Z" fill="#D92D20"/>
</g>
<defs>
<clipPath id="clip0_200_285">
<rect width="10" height="10" fill="white"/>
</clipPath>
</defs>
</svg>
