<svg width="14" height="14" viewBox="0 0 14 14" fill="none" xmlns="http://www.w3.org/2000/svg">
<path d="M13.4167 8.16667C13.4167 8.48883 13.1555 8.75 12.8333 8.75C12.5112 8.75 12.25 8.48883 12.25 8.16667V5.49154L8.656 9.0861C8.54732 9.19479 8.44117 9.3013 8.3444 9.38346C8.26794 9.44838 8.17597 9.51692 8.06356 9.57031L7.94393 9.61816C7.73892 9.68477 7.52007 9.6926 7.3116 9.64266L7.22273 9.61816C7.05373 9.56325 6.92426 9.47005 6.82226 9.38346C6.77389 9.3424 6.72346 9.29496 6.6713 9.24447L6.51066 9.0861L4.9139 7.48934C4.79159 7.36704 4.72438 7.29994 4.67236 7.25578C4.67041 7.25412 4.66844 7.25269 4.66666 7.25122C4.66489 7.25269 4.66292 7.25412 4.66097 7.25578C4.60895 7.29994 4.54173 7.36704 4.41943 7.48934L1.5791 10.3291C1.35129 10.5569 0.982034 10.5569 0.754228 10.3291C0.526423 10.1013 0.526423 9.73204 0.754228 9.50423L3.59399 6.6639C3.70268 6.55521 3.80882 6.4487 3.9056 6.36654C4.00759 6.27995 4.13707 6.18675 4.30607 6.13184L4.39494 6.10734C4.57359 6.06454 4.75974 6.06454 4.93839 6.10734L5.02726 6.13184L5.14689 6.17969C5.25931 6.23308 5.35127 6.30162 5.42773 6.36654C5.52451 6.4487 5.63065 6.55521 5.73934 6.6639L7.3361 8.26066L7.48307 8.40649C7.52171 8.44399 7.55161 8.47213 7.57763 8.49422C7.57948 8.49579 7.58164 8.49681 7.58333 8.49821C7.58502 8.49681 7.58718 8.49579 7.58903 8.49422C7.64104 8.45006 7.70826 8.38296 7.83056 8.26066L11.4251 4.66667H8.75C8.42783 4.66667 8.16666 4.4055 8.16666 4.08333C8.16666 3.76117 8.42783 3.5 8.75 3.5H12.8333L12.8931 3.50285C13.1872 3.53279 13.4167 3.78136 13.4167 4.08333V8.16667Z" fill="#209009"/>
</svg>
