<svg width="16" height="16" viewBox="0 0 16 16" fill="none" xmlns="http://www.w3.org/2000/svg">
<rect width="15.9982" height="15.9982" rx="7.99909" fill="#209009"/>
<path fill-rule="evenodd" clip-rule="evenodd" d="M9.8018 5.87826C9.8018 6.05386 9.65928 6.19638 9.48367 6.19638C9.30807 6.19638 9.16555 6.05386 9.16555 5.87826V5.24201C9.16555 4.5977 8.6434 4.07555 7.99909 4.07555C7.35478 4.07555 6.83263 4.5977 6.83263 5.24201V5.87826C6.83263 6.05386 6.69011 6.19638 6.51451 6.19638C6.3389 6.19638 6.19638 6.05386 6.19638 5.87826V5.24201C6.19638 4.24649 7.00357 3.4393 7.99909 3.4393C8.99461 3.4393 9.8018 4.24649 9.8018 5.24201V5.87826Z" fill="white"/>
<path fill-rule="evenodd" clip-rule="evenodd" d="M11.1133 6.45088L11.4527 11.5409C11.47 11.8047 11.3776 12.0635 11.1973 12.2565C11.0166 12.4494 10.7642 12.5589 10.5004 12.5589H5.49778C5.23395 12.5589 4.98157 12.4494 4.80087 12.2565C4.6206 12.0635 4.52813 11.8047 4.54553 11.5409L4.88486 6.45088C4.91837 5.94952 5.3349 5.56013 5.83711 5.56013H10.1611C10.6633 5.56013 11.0798 5.94952 11.1133 6.45088ZM9.05357 7.43834C8.86609 7.83239 8.4644 8.10513 7.99909 8.10513C7.53378 8.10513 7.13209 7.83239 6.94461 7.43834C6.86953 7.2797 6.67951 7.21226 6.52087 7.28776C6.36223 7.36284 6.29479 7.55287 6.36987 7.7115C6.65915 8.32061 7.28013 8.74138 7.99909 8.74138C8.71805 8.74138 9.33903 8.32061 9.62831 7.7115C9.70339 7.55287 9.63595 7.36284 9.47731 7.28776C9.31867 7.21226 9.12865 7.2797 9.05357 7.43834Z" fill="white"/>
</svg>
