<svg width="14" height="14" viewBox="0 0 14 14" fill="none" xmlns="http://www.w3.org/2000/svg">
<g clip-path="url(#clip0_1_17224)">
<path d="M7 0.800396C7.0972 0.800396 7.18523 0.857828 7.22461 0.948833L8.82227 4.68809L8.93945 4.96251L9.2373 4.98985L13.2773 5.35704H13.2783C13.3757 5.36593 13.4572 5.43124 13.4873 5.52403L13.4883 5.52501C13.5184 5.61847 13.4901 5.7199 13.416 5.78477V5.78575L10.3613 8.46348L10.1377 8.65977L10.2031 8.94981L11.1035 12.9176C11.1198 12.9898 11.1035 13.0632 11.0605 13.1197L11.0088 13.1705C10.9292 13.2281 10.8248 13.2319 10.7422 13.1822L10.7412 13.1813L7.25684 11.0982L7 10.9449L6.74316 11.0982L3.25781 13.1813C3.2174 13.2054 3.17453 13.2174 3.13281 13.2174C3.08401 13.2173 3.0346 13.2016 2.99023 13.1695C2.9116 13.1126 2.87375 13.0149 2.89551 12.9176L3.7959 8.94981L3.8623 8.65977L3.63867 8.46348L0.583984 5.78477L0.583008 5.78379L0.537109 5.73008C0.499679 5.67029 0.488855 5.59549 0.511719 5.52501C0.542213 5.43123 0.624798 5.36608 0.722656 5.35704L0.72168 5.35606L4.76367 4.98985L5.06055 4.96251L5.17773 4.68809L6.77539 0.94981C6.81475 0.85803 6.90282 0.800424 7 0.800396Z" fill="#FEEE95" stroke="#EAAA08"/>
</g>
<defs>
<clipPath id="clip0_1_17224">
<rect width="14" height="14" fill="white"/>
</clipPath>
</defs>
</svg>
